<?xml version="1.0" encoding="utf-8"?>
<!-- Generator: Adobe Illustrator 16.0.4, SVG Export Plug-In . SVG Version: 6.00 Build 0)  -->
<!DOCTYPE svg PUBLIC "-//W3C//DTD SVG 1.1//EN" "http://www.w3.org/Graphics/SVG/1.1/DTD/svg11.dtd">
<svg version="1.1" id="Layer_1" xmlns="http://www.w3.org/2000/svg" xmlns:xlink="http://www.w3.org/1999/xlink" x="0px" y="0px"
	 width="320px" height="200px" viewBox="0 0 320 200" enable-background="new 0 0 320 200" xml:space="preserve">
<g>
	<g>
		<path fill="#6B93CE" d="M205.787,175.133c-1.031,0-2.055-0.447-2.756-1.312c-1.225-1.516-0.995-3.735,0.521-4.971l0,0
			c1.332-1.086,4.965-4.638,5.787-7.998c2.346-9.553,5.936-32.313,5.971-32.541c0.308-1.932,2.121-3.244,4.045-2.943
			c1.936,0.307,3.25,2.113,2.945,4.043c-0.148,0.947-3.668,23.285-6.086,33.131c-1.541,6.271-7.527,11.256-8.209,11.805
			C207.357,174.875,206.566,175.133,205.787,175.133z"/>
	</g>
	<path fill="#084CAE" d="M216.288,33.654c-0.961-0.068-1.89-0.104-2.791-0.104c-19.677,0-26.772,16.206-27.749,24.604
		l-15.698,94.091c-0.051,0.269-5.144,27,24.253,34.944l0.564,0.104c1.169,0.118,2.336,0.184,3.477,0.184
		c20.861,0,28.078-19.431,28.374-20.261l0.112-0.312l16.503-103.762l0.041-0.518C243.475,53.287,237.945,35.22,216.288,33.654z
		 M219.948,165.096c-0.875,2.172-6.779,15.301-21.608,15.301c-0.807,0-1.638-0.039-2.473-0.114
		c-22.588-6.271-19.049-25.806-18.864-26.748l6.868-41.175c5.412,4.19,14.704,9.541,26.992,9.541c5.011,0,10.518-0.898,16.455-3.116
		L219.948,165.096z M231.542,65.952c-2.243,2.905-6.405,3.44-9.315,1.207c-2.9-2.243-3.437-6.408-1.199-9.312
		c2.24-2.905,6.406-3.444,9.312-1.201C233.242,58.881,233.777,63.047,231.542,65.952z"/>
	<path fill="#084CAE" d="M164.998,126.134l-0.053-0.334l-34.771-99.139l-0.208-0.475c-4.345-8.264-17.791-21.533-37.595-12.628
		c-0.879,0.396-1.716,0.812-2.508,1.238c-17.311,9.347-15.858,26.98-12.728,34.836l30.885,90.25
		c0.081,0.265,8.297,26.207,37.94,19.224l0.546-0.172c1.088-0.449,2.146-0.953,3.146-1.496
		C168.01,147.529,165.129,127,164.998,126.134z M98.583,90.457L83.771,47.188c-0.288-0.739-7.085-18.86,11.501-27.172
		c17.777-7.997,27.162,7.226,28.321,9.262l16.158,46.072C124.459,96.021,104.577,92.219,98.583,90.457z M151.924,141.296
		c-0.324,0.777-0.893,1.376-1.582,1.748c-0.907,0.491-2.022,0.581-3.048,0.151c-1.801-0.752-2.651-2.821-1.901-4.621
		c0.655-1.584,2.165-6.438,1.293-9.787c-2.476-9.521-10.129-31.251-10.203-31.472c-0.651-1.844,0.323-3.864,2.158-4.514
		c1.843-0.648,3.863,0.319,4.514,2.16c0.32,0.902,7.832,22.232,10.38,32.046C155.161,133.26,152.259,140.492,151.924,141.296z"/>
	<path fill="#6B93CE" d="M115.658,27.117c3.617,0.591,6.07,4.002,5.48,7.619c-0.594,3.621-4.002,6.072-7.623,5.487
		c-3.621-0.596-6.07-4.008-5.482-7.625C108.626,28.978,112.039,26.523,115.658,27.117z"/>
</g>
<g>
	<text transform="matrix(1 0 0 1 13.1367 134.3896)" fill="#6B93CE" font-family="'Bemio'" font-size="100">VAHC</text>
	
		<text transform="matrix(1 0 0 1 13.1367 134.3896)" fill="none" stroke="#000000" stroke-width="5" stroke-miterlimit="10" font-family="'Bemio'" font-size="100">VAHC</text>
</g>
</svg>
